<svg width="24" height="24" viewBox="0 0 24 24" fill="none" xmlns="http://www.w3.org/2000/svg">
<g id="Icon_&#208;&#161;lose">
<path id="Subtract" fill-rule="evenodd" clip-rule="evenodd" d="M12 24C18.6274 24 24 18.6274 24 12C24 5.37258 18.6274 0 12 0C5.37258 0 0 5.37258 0 12C0 18.6274 5.37258 24 12 24ZM16.4678 7.53217C16.7607 7.82506 16.7607 8.29994 16.4678 8.59283L13.0607 12L16.4678 15.4072C16.7607 15.7001 16.7607 16.1749 16.4678 16.4678C16.1749 16.7607 15.7001 16.7607 15.4072 16.4678L12 13.0607L8.59283 16.4678C8.29994 16.7607 7.82506 16.7607 7.53217 16.4678C7.23928 16.1749 7.23928 15.7001 7.53217 15.4072L10.9393 12L7.53217 8.59283C7.23928 8.29994 7.23928 7.82506 7.53217 7.53217C7.82506 7.23928 8.29994 7.23928 8.59283 7.53217L12 10.9393L15.4072 7.53217C15.7001 7.23928 16.1749 7.23928 16.4678 7.53217Z" fill="white"/>
</g>
</svg>
